<svg width="31" height="31" viewBox="0 0 31 31" fill="none" xmlns="http://www.w3.org/2000/svg">
<path d="M17.4917 23.55L25.5 15.5L17.4917 7.44999C17.4193 7.35501 17.3275 7.27668 17.2222 7.2203C17.117 7.16392 17.0009 7.13081 16.8817 7.12321C16.7626 7.11561 16.6432 7.1337 16.5317 7.17624C16.4201 7.21879 16.319 7.28481 16.2352 7.36982C16.1514 7.45484 16.0869 7.55687 16.0459 7.66901C16.005 7.78114 15.9886 7.90077 15.9979 8.01979C16.0072 8.13881 16.0419 8.25444 16.0998 8.35885C16.1577 8.46326 16.2373 8.55402 16.3333 8.62499L22.325 14.6667L6.38333 14.6667C6.16232 14.6667 5.95036 14.7544 5.79408 14.9107C5.6378 15.067 5.55 15.279 5.55 15.5C5.55 15.721 5.6378 15.933 5.79408 16.0892C5.95036 16.2455 6.16232 16.3333 6.38333 16.3333L22.325 16.3333L16.3333 22.375C16.1775 22.5319 16.0904 22.7443 16.0912 22.9654C16.092 23.1866 16.1806 23.3983 16.3375 23.5542C16.4944 23.71 16.7068 23.7971 16.9279 23.7963C17.1491 23.7955 17.3609 23.7069 17.5167 23.55L17.4917 23.55Z" fill="white"/>
</svg>
